HIERARCHY
ROOT Hips
{
  OFFSET 49.0777 96.8504 16.9918
  CHANNELS 6 Xposition Yposition Zposition Zrotation Xrotation Yrotation
  JOINT spine
  {
    OFFSET 0 7.96568 0.458067
    CHANNELS 3 Zrotation Xrotation Yrotation
    JOINT spine1
    {
      OFFSET 0 10.2431 0
      CHANNELS 3 Zrotation Xrotation Yrotation
      JOINT spine2
      {
        OFFSET 0 9.81475 0
        CHANNELS 3 Zrotation Xrotation Yrotation
        JOINT Neck
        {
          OFFSET 0 25.1986 1.20138
          CHANNELS 3 Zrotation Xrotation Yrotation
          JOINT Head
          {
            OFFSET 0 7.61315 0
            CHANNELS 3 Zrotation Xrotation Yrotation
            End Site
            {
              OFFSET 0 18.4281 -6.07733
            }
          }
        }
        JOINT RightShoulder
        {
          OFFSET -4.1327 10.5992 -0.575451
          CHANNELS 3 Zrotation Xrotation Yrotation
          JOINT RightArm
          {
            OFFSET 0 13.9018 0
            CHANNELS 3 Zrotation Xrotation Yrotation
            JOINT RightArmRoll
            {
              OFFSET 0 7.01789 0
              CHANNELS 3 Zrotation Xrotation Yrotation
              JOINT RightForeArm
              {
                OFFSET 0 20.4406 0
                CHANNELS 3 Zrotation Xrotation Yrotation
                JOINT RightForeArmRoll
                {
                  OFFSET 0 7.87516 0
                  CHANNELS 3 Zrotation Xrotation Yrotation
                  JOINT RightHand
                  {
                    OFFSET 0 15.8037 0
                    CHANNELS 3 Zrotation Xrotation Yrotation
                    End Site
                    {
                      OFFSET 0 0 0
                    }
                  }
                }
              }
            }
          }
        }
        JOINT LeftShoulder
        {
          OFFSET 4.1327 10.5992 -0.575451
          CHANNELS 3 Zrotation Xrotation Yrotation
          JOINT LeftArm
          {
            OFFSET 0 13.9018 0
            CHANNELS 3 Zrotation Xrotation Yrotation
            JOINT LeftArmRoll
            {
              OFFSET 0 7.01788 0
              CHANNELS 3 Zrotation Xrotation Yrotation
              JOINT LeftForeArm
              {
                OFFSET 0 20.4406 0
                CHANNELS 3 Zrotation Xrotation Yrotation
                JOINT LeftForeArmRoll
                {
                  OFFSET 0 7.87516 0
                  CHANNELS 3 Zrotation Xrotation Yrotation
                  JOINT LeftHand
                  {
                    OFFSET 0 15.8037 0
                    CHANNELS 3 Zrotation Xrotation Yrotation
                    End Site
                    {
                      OFFSET 0 0 0
                    }
                  }
                }
              }
            }
          }
        }
      }
    }
  }
  JOINT RightUpLeg
  {
    OFFSET -7.06048 -1.2947 -1.0861
    CHANNELS 3 Zrotation Xrotation Yrotation
    JOINT RightUpLegRoll
    {
      OFFSET 0 18.5308 0
      CHANNELS 3 Zrotation Xrotation Yrotation
      JOINT RightLeg
      {
        OFFSET 0 -22.9476 0
        CHANNELS 3 Zrotation Xrotation Yrotation
        JOINT RightLegRoll
        {
          OFFSET 0 23.0226 0
          CHANNELS 3 Zrotation Xrotation Yrotation
          JOINT RightFoot
          {
            OFFSET 0 19.1625 0
            CHANNELS 3 Zrotation Xrotation Yrotation
            JOINT RightToeBase
            {
              OFFSET 0 16.0188 0
              CHANNELS 3 Zrotation Xrotation Yrotation
              End Site
              {
                OFFSET 0.00678979 7.75782 -0.894206
              }
            }
          }
        }
      }
    }
  }
  JOINT LeftUpLeg
  {
    OFFSET 7.06048 -1.2947 -1.0861
    CHANNELS 3 Zrotation Xrotation Yrotation
    JOINT LeftUpLegRoll
    {
      OFFSET 0 18.5309 0
      CHANNELS 3 Zrotation Xrotation Yrotation
      JOINT LeftLeg
      {
        OFFSET 0 22.9475 0
        CHANNELS 3 Zrotation Xrotation Yrotation
        JOINT LeftLegRoll
        {
          OFFSET 0 23.2355 0
          CHANNELS 3 Zrotation Xrotation Yrotation
          JOINT LeftFoot
          {
            OFFSET 0 18.9496 0
            CHANNELS 3 Zrotation Xrotation Yrotation
            JOINT LeftToeBase
            {
              OFFSET 0 16.0188 0
              CHANNELS 3 Zrotation Xrotation Yrotation
              End Site
              {
                OFFSET -0.0304289 7.75782 -0.894206
              }
            }
          }
        }
      }
    }
  }
}
MOTION
Frames: 13
Frame Time: 0.00208333
47.2502 96.1304 13.221 0.717591 -3.4278 18.5493 0.501469 -0.0584539 0.279739 0.991809 3.88787 0.495466 0.987312 5.53279 0.479329 -19.1216 7.47935 3.73151 16.8047 14.8217 -1.01805 57.9982 2.12327 1.40427 103.487 37.4815 -14.6292 -6.50829e-006 -4.64295e-006 -1.00639e-006 -179.834 61.8799 169.151 -7.72388e-006 -4.67435e-006 -3.00022 8.03023 -4.95122 0.697582 -60.1952 -15.0774 9.36344 -113.361 44.7676 38.7314 2.25811e-006 1.00577e-006 -5.51148e-006 176.132 51.462 -156.499 6.3874e-006 1.56702e-005 2.99999 -8.03009 -4.95124 -0.697626 176.781 -3.75028 3.54268 180 7.01515e-015 178.791 178.748 9.5567 179.546 -5.37675e-007 -3.05192e-006 0.208836 -20.0888 69.5056 20.8823 8.18605 26.1245 -2.28997 -172.842 9.06233 0.223087 4.5067e-006 -1.99009e-005 -1.26075 2.37445 -14.9836 0.700627 5.2306e-007 -8.29357e-006 0.02921 17.4575 65.7268 -17.8037 -8.12879 25.2331 3.48445 
47.2461 96.1382 13.2515 0.725528 -3.44084 18.4572 0.505045 -0.0566048 0.268942 0.997722 3.89149 0.47348 0.9935 5.5364 0.45722 -19.101 7.58701 3.77262 16.7239 14.7301 -0.972446 58.1596 2.11071 1.3722 103.867 37.2782 -15.1958 -6.50829e-006 -4.64295e-006 -1.00639e-006 -179.697 61.3879 168.729 -7.72388e-006 -4.67435e-006 -3.00022 8.03023 -4.95122 0.697582 -60.1941 -14.9904 9.30932 -113.222 44.6633 38.4158 2.25811e-006 1.00577e-006 -5.51148e-006 176.169 51.4114 -156.599 6.3874e-006 1.56702e-005 2.99999 -8.03009 -4.95124 -0.697626 176.762 -3.75653 3.55466 180 7.01515e-015 178.791 178.747 9.56109 179.546 -5.37675e-007 -3.05192e-006 0.208606 -20.0759 69.4909 20.868 8.18636 26.1314 -2.2808 -172.824 9.00114 0.185455 4.5067e-006 -1.99009e-005 -1.26206 2.34641 -14.9674 0.696653 5.2306e-007 -8.29357e-006 0.0274146 17.4578 65.7319 -17.8075 -8.12879 25.2331 3.48445 
47.2494 96.1441 13.2615 0.732862 -3.45287 18.3633 0.508499 -0.0550915 0.258264 1.00353 3.89443 0.451741 0.999578 5.53934 0.435359 -19.0759 7.69521 3.81301 16.6401 14.6401 -0.926785 58.3205 2.09702 1.33965 104.239 37.0786 -15.7546 -6.50829e-006 -4.64295e-006 -1.00639e-006 -179.563 60.912 168.311 -7.72388e-006 -4.67435e-006 -3.00023 8.03023 -4.95122 0.697582 -60.1915 -14.903 9.25508 -113.084 44.5593 38.1023 2.25811e-006 1.00577e-006 -5.51148e-006 176.208 51.3601 -156.699 6.3874e-006 1.56702e-005 2.99999 -8.03009 -4.95124 -0.697626 176.742 -3.76087 3.56655 180 7.01514e-015 178.79 178.745 9.56558 179.546 -5.37675e-007 -3.05192e-006 0.208354 -20.063 69.4761 20.8538 8.18664 26.1379 -2.27226 -172.806 8.9413 0.147661 4.5067e-006 -1.99009e-005 -1.26334 2.31814 -14.9517 0.692667 5.2306e-007 -8.29357e-006 0.0255969 17.4583 65.7371 -17.8113 -8.1288 25.2331 3.48445 
47.2522 96.1472 13.2924 0.739367 -3.4635 18.2679 0.511764 -0.054086 0.247798 1.00914 3.89635 0.430443 1.00545 5.54127 0.413944 -19.0455 7.80516 3.85224 16.5534 14.5513 -0.88145 58.4816 2.08201 1.30642 104.594 36.8778 -16.3045 -6.50829e-006 -4.64295e-006 -1.00639e-006 -179.433 60.4502 167.897 -7.72388e-006 -4.67435e-006 -3.00023 8.03023 -4.95122 0.697582 -60.1874 -14.8152 9.20067 -112.949 44.4565 37.7916 2.25811e-006 1.00577e-006 -5.51148e-006 176.248 51.3079 -156.8 6.3874e-006 1.56702e-005 2.99999 -8.03009 -4.95124 -0.697626 176.722 -3.76285 3.57814 180 7.01514e-015 178.79 178.743 9.57023 179.546 -5.37675e-007 -3.05192e-006 0.208077 -20.0503 69.4615 20.8396 8.18688 26.1439 -2.26439 -172.788 8.88347 0.110009 4.5067e-006 -1.99009e-005 -1.2646 2.28989 -14.9368 0.688712 5.2306e-007 -8.29358e-006 0.0237716 17.4589 65.7425 -17.8153 -8.1288 25.2331 3.48446 
47.2513 96.1543 13.3037 0.744819 -3.47236 18.1712 0.51477 -0.0537606 0.237636 1.01446 3.89692 0.409781 1.01103 5.54183 0.393169 -19.009 7.91803 3.88987 16.4639 14.4633 -0.836821 58.6436 2.06551 1.2723 104.926 36.6707 -16.8446 -6.50829e-006 -4.64295e-006 -1.00639e-006 -179.308 60.0005 167.487 -7.72388e-006 -4.67435e-006 -3.00024 8.03023 -4.95122 0.697582 -60.1816 -14.7271 9.14608 -112.814 44.3558 37.4845 2.25811e-006 1.00577e-006 -5.51148e-006 176.289 51.2543 -156.902 6.3874e-006 1.56702e-005 2.99999 -8.03009 -4.95124 -0.697626 176.702 -3.76202 3.58921 180 7.01514e-015 178.789 178.742 9.57516 179.546 -5.37675e-007 -3.05192e-006 0.207773 -20.0378 69.4471 20.8258 8.18708 26.1493 -2.25721 -172.77 8.82833 0.0728041 4.5067e-006 -1.99009e-005 -1.26581 2.2619 -14.9226 0.68483 5.2306e-007 -8.29358e-006 0.0219531 17.4597 65.748 -17.8193 -8.1288 25.2331 3.48446 
47.2648 96.1586 13.3208 0.748999 -3.47906 18.0734 0.517449 -0.0542872 0.227873 1.01939 3.89579 0.389947 1.01621 5.5407 0.37323 -18.9656 8.03503 3.92548 16.3715 14.3757 -0.793277 58.8071 2.04736 1.23708 105.228 36.4526 -17.3736 -6.50829e-006 -4.64295e-006 -1.00639e-006 -179.188 59.5609 167.08 -7.72388e-006 -4.67435e-006 -3.00024 8.03023 -4.95122 0.697582 -60.1742 -14.6386 9.09127 -112.681 44.2583 37.1816 2.25811e-006 1.00577e-006 -5.51148e-006 176.332 51.1989 -157.005 6.3874e-006 1.56702e-005 2.99999 -8.03009 -4.95124 -0.697626 176.683 -3.75793 3.59954 180 7.01514e-015 178.789 178.74 9.58042 179.546 -5.37675e-007 -3.05192e-006 0.207439 -20.0256 69.433 20.8122 8.18725 26.1542 -2.25076 -172.752 8.77655 0.0363495 4.5067e-006 -1.99009e-005 -1.26697 2.23445 -14.9095 0.681063 5.2306e-007 -8.29358e-006 0.0201559 17.4608 65.7536 -17.8234 -8.12881 25.2331 3.48446 
47.2654 96.1612 13.3377 0.751688 -3.48321 17.9746 0.519733 -0.055838 0.218601 1.02384 3.89261 0.371137 1.0209 5.53752 0.354323 -18.9142 8.15734 3.95861 16.2765 14.2881 -0.751198 58.9729 2.02736 1.20055 105.49 36.2186 -17.8903 -6.50829e-006 -4.64295e-006 -1.00639e-006 -179.074 59.1294 166.676 -7.72388e-006 -4.67435e-006 -3.00025 8.03023 -4.95122 0.697582 -60.165 -14.5496 9.03623 -112.549 44.1649 36.8836 2.25811e-006 1.00577e-006 -5.51148e-006 176.377 51.1415 -157.107 6.3874e-006 1.56702e-005 2.99999 -8.03009 -4.95124 -0.697626 176.664 -3.75013 3.60892 180 7.01514e-015 178.788 178.739 9.58612 179.546 -5.37675e-007 -3.05192e-006 0.207074 -20.0138 69.4194 20.7992 8.18738 26.1585 -2.24507 -172.734 8.7288 0.000949014 4.5067e-006 -1.99009e-005 -1.26807 2.20777 -14.8975 0.677454 5.2306e-007 -8.29358e-006 0.0183945 17.4622 65.7593 -17.8276 -8.12881 25.2331 3.48446 
47.2772 96.1651 13.3303 0.752673 -3.48444 17.8749 0.521552 -0.0585851 0.209914 1.02773 3.88704 0.353544 1.025 5.53195 0.336643 -18.8542 8.28614 3.98885 16.1788 14.2001 -0.710964 59.1416 2.00535 1.16251 105.707 35.9639 -18.3934 -6.50829e-006 -4.64295e-006 -1.00639e-006 -178.967 58.7039 166.276 -7.72388e-006 -4.67435e-006 -3.00025 8.03023 -4.95122 0.697582 -60.1539 -14.4601 8.98093 -112.417 44.0766 36.5911 2.25811e-006 1.00577e-006 -5.51148e-006 176.424 51.0816 -157.21 6.3874e-006 1.56702e-005 2.99999 -8.03009 -4.95124 -0.697626 176.646 -3.73817 3.61713 180 7.01514e-015 178.788 178.739 9.59233 179.546 -5.37675e-007 -3.05192e-006 0.206674 -20.0026 69.4064 20.7867 8.18747 26.1623 -2.24016 -172.717 8.68576 -0.033094 4.5067e-006 -1.99009e-005 -1.26909 2.18213 -14.8866 0.674046 5.2306e-007 -8.29358e-006 0.0166834 17.464 65.7652 -17.8319 -8.12881 25.2331 3.48446 
47.278 96.1693 13.3494 0.752308 -3.48272 17.7742 0.522958 -0.0624722 0.201574 1.0312 3.87919 0.336689 1.02868 5.52411 0.319708 -18.7865 8.42088 4.01716 16.0767 14.1117 -0.671777 59.3141 1.98158 1.12298 105.884 35.6957 -18.8889 -6.50829e-006 -4.64295e-006 -1.00639e-006 -178.857 58.2896 165.868 -7.72388e-006 -4.67435e-006 -3.00026 8.03023 -4.95122 0.697582 -60.1402 -14.3692 8.9248 -112.285 43.9919 36.3012 2.25811e-006 1.00577e-006 -5.51148e-006 176.475 51.0175 -157.315 6.3874e-006 1.56702e-005 2.99999 -8.03009 -4.95124 -0.697626 176.627 -3.72177 3.62471 180 7.01514e-015 178.787 178.738 9.59944 179.546 -5.37675e-007 -3.05192e-006 0.20623 -19.9917 69.3937 20.7747 8.18753 26.1657 -2.23563 -172.7 8.64706 -0.0662696 4.5067e-006 -1.99009e-005 -1.27005 2.15698 -14.8768 0.670747 5.2306e-007 -8.29357e-006 0.0149954 17.466 65.7712 -17.8363 -8.12882 25.2331 3.48446 
47.2809 96.1725 13.3616 0.751121 -3.47847 17.6718 0.524067 -0.0672591 0.193298 1.03451 3.86955 0.319996 1.03219 5.51446 0.302938 -18.7126 8.55974 4.04476 15.9691 14.0232 -0.632614 59.4901 1.95645 1.08223 106.037 35.4251 -19.3825 -6.50829e-006 -4.64295e-006 -1.00639e-006 -178.734 57.892 165.441 -7.72388e-006 -4.67435e-006 -3.00026 8.03023 -4.95122 0.697582 -60.1235 -14.2762 8.86745 -112.152 43.9085 36.0107 2.25811e-006 1.00577e-006 -5.51148e-006 176.531 50.9482 -157.424 6.3874e-006 1.56702e-005 2.99999 -8.03009 -4.95124 -0.697626 176.608 -3.70124 3.63232 180 7.01514e-015 178.787 178.738 9.60763 179.546 -5.37675e-007 -3.05192e-006 0.205737 -19.981 69.3811 20.7628 8.18759 26.1692 -2.23115 -172.683 8.61163 -0.0992891 4.5067e-006 -1.99009e-005 -1.27097 2.13164 -14.8677 0.667443 5.2306e-007 -8.29357e-006 0.0132939 17.4683 65.7774 -17.8409 -8.12882 25.2331 3.48446 
47.2905 96.1758 13.375 0.749155 -3.47198 17.5678 0.524908 -0.0728421 0.185113 1.03763 3.85831 0.303516 1.03551 5.50322 0.286383 -18.6329 8.70208 4.07159 15.8564 13.9351 -0.593511 59.6689 1.92998 1.0404 106.169 35.153 -19.8727 -6.50829e-006 -4.64295e-006 -1.00639e-006 -178.602 57.5105 165 -7.72388e-006 -4.67435e-006 -3.00027 8.03023 -4.95122 0.697582 -60.1043 -14.1815 8.80914 -112.019 43.8264 35.7203 2.25811e-006 1.00577e-006 -5.51148e-006 176.59 50.8747 -157.535 6.3874e-006 1.56702e-005 2.99999 -8.03009 -4.95124 -0.697626 176.588 -3.67704 3.63989 180 7.01514e-015 178.787 178.737 9.61671 179.545 -5.37675e-007 -3.05192e-006 0.205201 -19.9703 69.3687 20.751 8.18763 26.1724 -2.22684 -172.666 8.57914 -0.132182 4.5067e-006 -1.99009e-005 -1.27186 2.10613 -14.8593 0.664139 5.2306e-007 -8.29357e-006 0.011579 17.4708 65.7837 -17.8455 -8.12882 25.2331 3.48447 
47.3041 96.1772 13.3671 0.746451 -3.46353 17.4622 0.525511 -0.0791176 0.177046 1.04057 3.84568 0.287298 1.03866 5.4906 0.270093 -18.5475 8.84727 4.09757 15.7394 13.8475 -0.554506 59.8496 1.9022 0.997629 106.281 34.8803 -20.3583 -6.50829e-006 -4.64295e-006 -1.00639e-006 -178.463 57.1444 164.549 -7.72388e-006 -4.67435e-006 -3.00027 8.03023 -4.95122 0.697582 -60.0827 -14.0854 8.75012 -111.885 43.7455 35.4304 2.25811e-006 1.00577e-006 -5.51148e-006 176.651 50.7981 -157.648 6.3874e-006 1.56702e-005 2.99999 -8.03009 -4.95124 -0.697626 176.567 -3.6496 3.64737 180 7.01514e-015 178.787 178.736 9.62647 179.545 -5.37675e-007 -3.05192e-006 0.204629 -19.9598 69.3563 20.7394 8.18765 26.1755 -2.22286 -172.649 8.54924 -0.164977 4.5067e-006 -1.99009e-005 -1.27271 2.08048 -14.8515 0.66084 5.2306e-007 -8.29357e-006 0.00985108 17.4735 65.7903 -17.8503 -8.12882 25.2331 3.48447 
47.3137 96.1846 13.3924 0.74305 -3.4534 17.3551 0.525904 -0.0859819 0.169124 1.04334 3.83188 0.271391 1.04162 5.4768 0.254117 -18.4568 8.99465 4.12265 15.6186 13.7609 -0.515637 60.0314 1.87312 0.954058 106.376 34.608 -20.8376 -6.50829e-006 -4.64295e-006 -1.00639e-006 -178.319 56.7932 164.092 -7.72388e-006 -4.67435e-006 -3.00028 8.03023 -4.95122 0.697582 -60.0591 -13.9884 8.69062 -111.752 43.666 35.1417 2.25811e-006 1.00577e-006 -5.51148e-006 176.715 50.7191 -157.762 6.3874e-006 1.56702e-005 2.99999 -8.03009 -4.95124 -0.697626 176.546 -3.61936 3.6547 180 7.01514e-015 178.786 178.735 9.63663 179.545 -5.37675e-007 -3.05192e-006 0.204025 -19.9493 69.344 20.7279 8.18765 26.1782 -2.21935 -172.632 8.52159 -0.197703 4.5067e-006 -1.99009e-005 -1.27353 2.05472 -14.8444 0.65755 5.2306e-007 -8.29357e-006 0.00811027 17.4764 65.797 -17.8551 -8.12883 25.2331 3.48447 
